<svg width="24" height="24" viewBox="0 0 24 24" fill="none" xmlns="http://www.w3.org/2000/svg">
<path d="M7.99973 11.9997C7.99927 12.2334 8.08064 12.4598 8.22972 12.6397L13.2297 18.6397C13.3995 18.8439 13.6434 18.9724 13.9078 18.9967C14.1722 19.0211 14.4355 18.9395 14.6397 18.7697C14.8439 18.6 14.9724 18.3561 14.9967 18.0916C15.0211 17.8272 14.9395 17.5639 14.7697 17.3597L10.2897 11.9997L14.6097 6.63972C14.6928 6.53744 14.7548 6.41974 14.7923 6.2934C14.8297 6.16706 14.8418 6.03457 14.8278 5.90354C14.8139 5.77252 14.7742 5.64553 14.711 5.5299C14.6479 5.41426 14.5625 5.31225 14.4597 5.22972C14.3569 5.13814 14.2363 5.06879 14.1054 5.02599C13.9745 4.9832 13.8362 4.9679 13.6992 4.98104C13.5621 4.99418 13.4292 5.03549 13.3089 5.10237C13.1885 5.16926 13.0833 5.26028 12.9997 5.36973L8.16973 11.3697C8.04421 11.5548 7.98435 11.7766 7.99973 11.9997Z" fill="#F1D229"/>
</svg>
