<svg width="24" height="24" viewBox="0 0 24 24" fill="none" xmlns="http://www.w3.org/2000/svg">
<path d="M16.0003 11.9997C16.0007 12.2334 15.9194 12.4598 15.7703 12.6397L10.7703 18.6397C10.6005 18.8439 10.3566 18.9724 10.0922 18.9967C9.82777 19.0211 9.56449 18.9395 9.36028 18.7697C9.15606 18.6 9.02763 18.3561 9.00325 18.0916C8.97888 17.8272 9.06054 17.5639 9.23028 17.3597L13.7103 11.9997L9.39028 6.63972C9.30721 6.53744 9.24518 6.41974 9.20775 6.2934C9.17031 6.16706 9.15822 6.03457 9.17216 5.90354C9.1861 5.77252 9.2258 5.64553 9.28897 5.5299C9.35214 5.41426 9.43755 5.31225 9.54027 5.22972C9.6431 5.13814 9.76372 5.06879 9.8946 5.02599C10.0255 4.9832 10.1638 4.9679 10.3008 4.98104C10.4379 4.99418 10.5708 5.03549 10.6911 5.10237C10.8115 5.16926 10.9167 5.26028 11.0003 5.36973L15.8303 11.3697C15.9558 11.5548 16.0156 11.7766 16.0003 11.9997Z" fill="#F1D229"/>
</svg>
