<svg width="486" height="87" viewBox="0 0 486 87" fill="none" xmlns="http://www.w3.org/2000/svg">
<path fill-rule="evenodd" clip-rule="evenodd" d="M393.778 87H365.428L360.328 65.4C360.128 64.6 359.778 63.25 359.278 61.35C358.878 59.35 358.378 57.9 357.778 57C357.178 56 356.328 55.35 355.228 55.05C352.428 55.15 348.328 55.2 342.928 55.2V87H315.928V2.25002C328.028 1.35002 339.328 0.900024 349.828 0.900024C359.328 0.900024 367.028 1.70002 372.928 3.30002C378.828 4.80002 383.228 7.45002 386.128 11.25C389.128 14.95 390.628 20.05 390.628 26.55C390.628 32.65 389.228 37.45 386.428 40.95C383.628 44.35 379.128 46.4 372.928 47.1V48C376.428 48.3 379.328 49.45 381.628 51.45C384.028 53.35 385.628 55.8 386.428 58.8L393.778 87ZM342.928 38.25C343.828 38.35 345.578 38.4 348.178 38.4C355.878 38.4 360.378 37.75 361.678 36.45C362.878 35.25 363.478 32.45 363.478 28.05C363.478 23.95 362.378 21.15 360.178 19.65C358.078 18.15 354.578 17.4 349.678 17.4C348.578 17.4 346.328 17.5 342.928 17.7V38.25ZM432.939 1.5C444.639 1.5 454.189 2.6 461.589 4.8C469.089 7 474.889 11.15 478.989 17.25C483.189 23.35 485.289 32.1 485.289 43.5C485.289 55.7 483.089 65 478.689 71.4C474.289 77.7 468.389 81.9 460.989 84C453.589 86 444.239 87 432.939 87H402.939V1.5H432.939ZM453.039 66.6C454.239 65.4 455.089 62.3 455.589 57.3C456.089 52.3 456.339 47.7 456.339 43.5C456.339 38.2 455.939 34 455.139 30.9C454.439 27.7 453.139 25.15 451.239 23.25C448.239 19.95 443.089 18.3 435.789 18.3C434.489 18.3 432.539 18.4 429.939 18.6V68.4C431.639 68.6 434.289 68.7 437.889 68.7C441.589 68.7 444.839 68.55 447.639 68.25C450.539 67.85 452.339 67.3 453.039 66.6ZM251.319 68.25H276.219L280.719 87H308.469L282.069 1.5H246.819L219.219 87H246.819L251.319 68.25ZM254.769 51.6L263.619 19.95H264.219L272.619 51.6H254.769ZM143.671 87H109.921L87.8715 1.5H116.671L128.071 64.35H128.821L140.971 1.5H169.171L181.621 64.35H182.071L193.621 1.5H221.221L199.171 87H165.571L155.371 32.4H154.471L143.671 87ZM32.3246 68.25H57.2246L61.7246 87H89.4746L63.0746 1.5H27.8246L0.224609 87H27.8246L32.3246 68.25ZM35.7746 51.6L44.6246 19.95H45.2246L53.6246 51.6H35.7746Z" fill="#010101"/>
<g clip-path="url(#clip0_1_133)">
<path fill-rule="evenodd" clip-rule="evenodd" d="M393.778 87H365.428L360.328 65.4C360.128 64.6 359.778 63.25 359.278 61.35C358.878 59.35 358.378 57.9 357.778 57C357.178 56 356.328 55.35 355.228 55.05C352.428 55.15 348.328 55.2 342.928 55.2V87H315.928V2.25002C328.028 1.35002 339.328 0.900024 349.828 0.900024C359.328 0.900024 367.028 1.70002 372.928 3.30002C378.828 4.80002 383.228 7.45002 386.128 11.25C389.128 14.95 390.628 20.05 390.628 26.55C390.628 32.65 389.228 37.45 386.428 40.95C383.628 44.35 379.128 46.4 372.928 47.1V48C376.428 48.3 379.328 49.45 381.628 51.45C384.028 53.35 385.628 55.8 386.428 58.8L393.778 87ZM342.928 38.25C343.828 38.35 345.578 38.4 348.178 38.4C355.878 38.4 360.378 37.75 361.678 36.45C362.878 35.25 363.478 32.45 363.478 28.05C363.478 23.95 362.378 21.15 360.178 19.65C358.078 18.15 354.578 17.4 349.678 17.4C348.578 17.4 346.328 17.5 342.928 17.7V38.25ZM432.939 1.5C444.639 1.5 454.189 2.6 461.589 4.8C469.089 7 474.889 11.15 478.989 17.25C483.189 23.35 485.289 32.1 485.289 43.5C485.289 55.7 483.089 65 478.689 71.4C474.289 77.7 468.389 81.9 460.989 84C453.589 86 444.239 87 432.939 87H402.939V1.5H432.939ZM453.039 66.6C454.239 65.4 455.089 62.3 455.589 57.3C456.089 52.3 456.339 47.7 456.339 43.5C456.339 38.2 455.939 34 455.139 30.9C454.439 27.7 453.139 25.15 451.239 23.25C448.239 19.95 443.089 18.3 435.789 18.3C434.489 18.3 432.539 18.4 429.939 18.6V68.4C431.639 68.6 434.289 68.7 437.889 68.7C441.589 68.7 444.839 68.55 447.639 68.25C450.539 67.85 452.339 67.3 453.039 66.6ZM251.319 68.25H276.219L280.719 87H308.469L282.069 1.5H246.819L219.219 87H246.819L251.319 68.25ZM254.769 51.6L263.619 19.95H264.219L272.619 51.6H254.769ZM143.671 87H109.921L87.8715 1.5H116.671L128.071 64.35H128.821L140.971 1.5H169.171L181.621 64.35H182.071L193.621 1.5H221.221L199.171 87H165.571L155.371 32.4H154.471L143.671 87ZM32.3246 68.25H57.2246L61.7246 87H89.4746L63.0746 1.5H27.8246L0.224609 87H27.8246L32.3246 68.25ZM35.7746 51.6L44.6246 19.95H45.2246L53.6246 51.6H35.7746Z" fill="#B78D23"/>
</g>
<defs>
<clipPath id="clip0_1_133">
<rect width="485" height="48" fill="white" transform="translate(0 1)"/>
</clipPath>
</defs>
</svg>
