<svg width="552" height="65" viewBox="0 0 552 65" fill="none" xmlns="http://www.w3.org/2000/svg">
<path d="M521.846 17.7101C521.846 19.2501 522.616 20.4601 524.156 21.34C525.769 22.22 528.263 23.1734 531.636 24.2001C535.669 25.5201 538.969 26.8034 541.536 28.05C544.176 29.2967 546.449 31.24 548.356 33.88C550.336 36.52 551.326 39.9667 551.326 44.2201C551.326 57.8601 542.453 64.6801 524.706 64.6801C521.773 64.6801 518.179 64.4234 513.926 63.9101C509.746 63.3967 505.933 62.7367 502.486 61.93C502.633 60.39 502.926 58.1534 503.366 55.2201C503.879 52.2134 504.356 49.9767 504.796 48.5101C507.363 48.8767 511.213 49.3167 516.346 49.8301C521.553 50.3434 525.476 50.6001 528.116 50.6001C529.656 50.6001 530.573 50.4901 530.866 50.2701C531.306 49.9767 531.636 49.5 531.856 48.84C532.149 48.1067 532.296 47.4834 532.296 46.9701C532.296 45.5034 531.599 44.4034 530.206 43.6701C528.813 42.8634 526.429 41.91 523.056 40.8101C519.023 39.5634 515.686 38.28 513.046 36.96C510.406 35.64 508.096 33.5867 506.116 30.8C504.136 28.0134 503.146 24.3467 503.146 19.8C503.146 16.5734 503.879 13.4201 505.346 10.3401C506.813 7.18672 508.316 5.06005 509.856 3.96005C511.029 3.15338 513.449 2.38338 517.116 1.65005C520.783 0.916715 524.229 0.550049 527.456 0.550049C535.669 0.550049 542.379 1.32005 547.586 2.86005C547.513 4.32672 547.256 6.34338 546.816 8.91005C546.449 11.4767 546.046 13.8234 545.606 15.9501L543.076 15.84C533.543 15.18 527.456 14.85 524.816 14.85C523.716 14.85 523.093 14.8867 522.946 14.96C522.653 15.1067 522.396 15.4367 522.176 15.9501C521.956 16.4634 521.846 17.0501 521.846 17.7101Z" fill="#B78D23"/>
<path d="M479.762 63.47H459.962V14.52H442.252V0.77002H497.472V14.52H479.762V63.47Z" fill="#B78D23"/>
<path d="M378.877 0.77002H398.787V23.76H415.837V0.77002H435.747V63.47H415.837V36.41H398.787V63.47H378.877V0.77002Z" fill="#B78D23"/>
<path d="M369.416 28.71V60.06C364.503 61.6733 359.846 62.8467 355.446 63.58C351.046 64.3133 347.343 64.68 344.336 64.68C334.363 64.68 326.553 62.0767 320.906 56.87C315.259 51.6633 312.436 43.67 312.436 32.89C312.436 21.89 315.406 13.6767 321.346 8.25C327.286 2.75 335.646 0 346.426 0C352.073 0 358.856 0.843333 366.776 2.53C366.776 3.99667 366.63 6.19667 366.336 9.13C366.043 11.99 365.75 14.0067 365.456 15.18L361.496 15.07C356.656 14.9233 352.88 14.85 350.166 14.85C342.026 14.85 337.59 15.3267 336.856 16.28C335.683 17.6733 334.84 19.8367 334.326 22.77C333.886 25.7033 333.666 28.5267 333.666 31.24C333.666 36.1533 334.216 39.9667 335.316 42.68C336.416 45.3933 338.103 47.3 340.376 48.4C342.649 49.5 345.73 50.05 349.616 50.05H350.056V28.71H369.416Z" fill="#B78D23"/>
<path d="M291.654 0.469971H303.654V63.47H291.654V0.469971Z" fill="black"/>
<path d="M275.654 16.5652L291.654 0.469971V26.47L275.654 16.5652Z" fill="black"/>
<path d="M231.057 0.77002H250.857V48.95H276.487V63.47H231.057V0.77002Z" fill="#B78D23"/>
<path d="M163.281 0.77002H183.191V23.76H200.241V0.77002H220.151V63.47H200.241V36.41H183.191V63.47H163.281V0.77002Z" fill="#B78D23"/>
<path d="M153.82 28.71V60.06C148.907 61.6733 144.25 62.8467 139.85 63.58C135.45 64.3133 131.747 64.68 128.74 64.68C118.767 64.68 110.957 62.0767 105.31 56.87C99.6638 51.6633 96.8405 43.67 96.8405 32.89C96.8405 21.89 99.8105 13.6767 105.75 8.25C111.69 2.75 120.05 0 130.83 0C136.477 0 143.26 0.843333 151.18 2.53C151.18 3.99667 151.034 6.19667 150.74 9.13C150.447 11.99 150.154 14.0067 149.86 15.18L145.9 15.07C141.06 14.9233 137.284 14.85 134.57 14.85C126.43 14.85 121.994 15.3267 121.26 16.28C120.087 17.6733 119.244 19.8367 118.73 22.77C118.29 25.7033 118.07 28.5267 118.07 31.24C118.07 36.1533 118.62 39.9667 119.72 42.68C120.82 45.3933 122.507 47.3 124.78 48.4C127.054 49.5 130.134 50.05 134.02 50.05H134.46V28.71H153.82Z" fill="#B78D23"/>
<path d="M68.1055 0.77002H87.9055V63.47H68.1055V0.77002Z" fill="#B78D23"/>
<path d="M0 0.77002H19.91V23.76H36.96V0.77002H56.87V63.47H36.96V36.41H19.91V63.47H0V0.77002Z" fill="#B78D23"/>
</svg>
