<svg width="155" height="130" viewBox="0 0 155 130" fill="none" xmlns="http://www.w3.org/2000/svg">
<path d="M121.537 115.762L120.786 114.409C121.18 113.991 121.4 113.438 121.399 112.863V107.249C121.399 106.652 121.162 106.078 120.739 105.656C120.317 105.233 119.743 104.995 119.145 104.995H108.686C108.452 104.997 108.22 105.035 107.998 105.108C107.778 105.035 107.547 104.997 107.315 104.995H96.7372C96.5079 104.994 96.2798 105.029 96.061 105.097C95.8454 105.03 95.6208 104.995 95.3949 104.995H83.203C82.9737 104.994 82.7457 105.029 82.5268 105.097C82.3116 105.03 82.0874 104.995 81.8619 104.995H70.1173C69.8848 104.995 69.6537 105.031 69.4321 105.101C69.2105 105.031 68.9794 104.995 68.7469 104.995H65.4065C64.8898 104.995 64.3887 105.173 63.9872 105.498C63.5857 105.823 63.3081 106.276 63.2009 106.782L62.66 105.984C62.4533 105.679 62.1753 105.43 61.8502 105.258C61.5251 105.086 61.1627 104.995 60.7948 104.995H57.0182C56.7916 104.995 56.5664 105.029 56.3499 105.096C56.1334 105.029 55.9081 104.995 55.6815 104.995H43.9708C43.7443 104.995 43.519 105.029 43.3025 105.096C43.086 105.029 42.8607 104.995 42.6342 104.995H38.6209C38.1907 104.996 37.7694 105.119 37.4069 105.351C37.0445 105.583 36.7559 105.913 36.5754 106.304L35.5859 108.445L34.6032 106.304C34.4232 105.912 34.1346 105.58 33.7716 105.347C33.4087 105.115 32.9866 104.991 32.5554 104.991H28.4114C27.8136 104.991 27.2403 105.228 26.8176 105.651C26.3949 106.074 26.1574 106.647 26.1574 107.245V116.847C26.1574 117.445 26.3949 118.018 26.8176 118.441C27.2403 118.864 27.8136 119.101 28.4114 119.101H31.5028C32.0017 119.102 32.4866 118.936 32.8811 118.631C33.2759 118.936 33.7607 119.101 34.2594 119.101H36.8335C37.3397 119.101 37.8312 118.931 38.2288 118.618C38.6258 118.932 39.1176 119.102 39.624 119.101H42.632C42.8585 119.101 43.0838 119.067 43.3003 119.001C43.5167 119.068 43.742 119.101 43.9686 119.101H55.6815C55.9081 119.101 56.1334 119.068 56.3499 119.001C56.5664 119.067 56.7916 119.101 57.0182 119.101H60.3992C60.9168 119.101 61.4188 118.923 61.8206 118.597C62.2225 118.27 62.4997 117.816 62.6059 117.309L63.175 118.131C63.3824 118.43 63.6594 118.675 63.982 118.844C64.3047 119.013 64.6635 119.101 65.0278 119.101H68.7548C68.9813 119.101 69.2066 119.067 69.4231 119.001C69.6396 119.068 69.8649 119.101 70.0914 119.101H81.4742C82.072 119.101 82.6453 118.864 83.068 118.441C83.4907 118.018 83.7282 117.445 83.7282 116.847V111.333C83.7276 111.146 83.7038 110.96 83.6572 110.779H85.235V116.847C85.235 117.445 85.4724 118.018 85.8952 118.441C86.3179 118.864 86.8912 119.101 87.489 119.101H90.8317C91.4295 119.101 92.0028 118.864 92.4255 118.441C92.8482 118.018 93.0857 117.445 93.0857 116.847V110.784H94.4832V116.847C94.4832 117.445 94.7206 118.018 95.1434 118.441C95.5661 118.864 96.1394 119.101 96.7372 119.101H106.613C106.974 119.101 107.329 119.014 107.649 118.847C107.969 119.014 108.325 119.101 108.686 119.101H112.077C112.473 119.102 112.862 118.998 113.206 118.8C113.549 118.602 113.834 118.317 114.032 117.974C114.23 118.317 114.515 118.602 114.859 118.8C115.202 118.998 115.591 119.102 115.988 119.101H119.564C119.956 119.101 120.341 118.999 120.681 118.805C121.022 118.61 121.306 118.33 121.505 117.993C121.704 117.655 121.812 117.271 121.818 116.879C121.823 116.487 121.726 116.1 121.537 115.757V115.762ZM50.0364 110.784V113.311H49.6149V110.784H50.0364Z" fill="white" stroke="white" stroke-width="4.50802" stroke-miterlimit="10"/>
<path d="M121.043 116.139L120.071 114.378C120.306 114.224 120.499 114.014 120.633 113.767C120.766 113.52 120.836 113.243 120.836 112.962V107.349C120.836 106.9 120.658 106.47 120.341 106.153C120.024 105.836 119.594 105.658 119.145 105.658H108.686C108.45 105.658 108.216 105.707 108 105.804C107.785 105.708 107.551 105.658 107.315 105.658H96.7383C96.5082 105.658 96.2804 105.705 96.0689 105.796C95.8578 105.705 95.6304 105.658 95.4006 105.658H83.203C82.9729 105.658 82.7451 105.705 82.5336 105.796C82.3228 105.705 82.0958 105.658 81.8664 105.658H70.1174C69.8813 105.658 69.6478 105.707 69.4321 105.804C69.2165 105.707 68.983 105.658 68.7469 105.658H65.4076C64.9593 105.658 64.5293 105.836 64.2122 106.153C63.8952 106.47 63.7171 106.9 63.7171 107.349V108.645L62.1945 106.4C62.0395 106.171 61.8309 105.984 61.5869 105.855C61.3429 105.726 61.0709 105.658 60.7948 105.658H57.0182C56.7884 105.658 56.5609 105.705 56.3499 105.796C56.1389 105.704 55.9114 105.658 55.6816 105.658H43.9709C43.741 105.658 43.5135 105.704 43.3026 105.796C43.0916 105.705 42.8641 105.658 42.6342 105.658H38.621C38.2983 105.658 37.9824 105.751 37.7106 105.925C37.4388 106.099 37.2224 106.347 37.0871 106.64L35.5848 109.891L34.0916 106.642C33.9564 106.348 33.7399 106.1 33.4676 105.925C33.1953 105.751 32.8788 105.658 32.5554 105.658H28.4115C27.9631 105.658 27.5331 105.836 27.2161 106.153C26.8991 106.47 26.7209 106.9 26.7209 107.349V116.96C26.7209 117.408 26.8991 117.838 27.2161 118.155C27.5331 118.472 27.9631 118.65 28.4115 118.65H31.5028C31.7727 118.65 32.0387 118.586 32.2785 118.462C32.5183 118.338 32.725 118.158 32.8812 117.938C33.0375 118.158 33.2443 118.338 33.4843 118.462C33.7243 118.586 33.9905 118.65 34.2606 118.65H36.8336C37.1084 118.65 37.3791 118.583 37.6223 118.455C37.8654 118.327 38.0736 118.141 38.2288 117.914C38.384 118.141 38.5922 118.327 38.8353 118.455C39.0784 118.583 39.3491 118.65 39.624 118.65H42.632C42.8618 118.65 43.0892 118.604 43.3003 118.513C43.5121 118.604 43.7403 118.651 43.9709 118.65H55.6816C55.9114 118.65 56.1388 118.604 56.3499 118.513C56.561 118.604 56.7884 118.65 57.0182 118.65H60.3992C60.8476 118.65 61.2775 118.472 61.5946 118.155C61.9116 117.838 62.0897 117.408 62.0897 116.96V115.686L63.6382 117.922C63.7938 118.147 64.0014 118.33 64.2435 118.457C64.4855 118.584 64.7546 118.65 65.0278 118.65H68.7548C68.9846 118.65 69.212 118.604 69.4231 118.513C69.6342 118.604 69.8616 118.65 70.0914 118.65H81.4742C81.9225 118.65 82.3525 118.472 82.6696 118.155C82.9866 117.838 83.1647 117.408 83.1647 116.96V111.437C83.1645 111.211 83.1188 110.986 83.0301 110.778C82.9414 110.569 82.8117 110.38 82.6485 110.223C82.8293 110.288 83.0199 110.321 83.212 110.321H85.8041V116.96C85.8041 117.408 85.9822 117.838 86.2993 118.155C86.6163 118.472 87.0463 118.65 87.4946 118.65H90.8362C91.2846 118.65 91.7146 118.472 92.0316 118.155C92.3486 117.838 92.5267 117.408 92.5267 116.96V110.329H94.6793C94.8079 110.328 94.936 110.313 95.0614 110.285V116.96C95.0614 117.408 95.2395 117.838 95.5565 118.155C95.8735 118.472 96.3035 118.65 96.7519 118.65H106.627C107.002 118.65 107.367 118.525 107.664 118.294C107.959 118.525 108.324 118.65 108.699 118.65H112.092C112.54 118.65 112.97 118.472 113.287 118.155C113.604 117.838 113.782 117.408 113.782 116.96V116.488L114.535 117.801C114.683 118.059 114.896 118.273 115.153 118.422C115.411 118.571 115.703 118.65 116 118.65H119.576C119.87 118.65 120.159 118.574 120.414 118.428C120.669 118.282 120.882 118.072 121.032 117.819C121.181 117.566 121.262 117.278 121.266 116.984C121.27 116.69 121.198 116.4 121.056 116.143L121.043 116.139ZM50.6055 110.663V114.317H49.0514V110.663H50.6055Z" fill="#231815" stroke="#231815" stroke-width="2.25401" stroke-miterlimit="10"/>
<path d="M42.6321 116.068H39.6241V109.886L36.8337 116.068H34.2596L31.5029 109.972V116.072H28.4116V106.463H32.5556L35.5804 113.047L38.6233 106.463H42.6344L42.6321 116.068Z" fill="#B78D23"/>
<path d="M47.3609 107.747V114.781H52.2904V106.459H55.6816V116.068H43.9709V106.459H52.2927L51.1229 107.747H47.3609Z" fill="#B78D23"/>
<path d="M65.0223 116.068L60.3936 109.384V116.068H57.0126V106.459H60.7892L65.4009 113.261V106.459H68.7436V116.068H65.0223Z" fill="#B78D23"/>
<path d="M81.4653 116.068H70.0825V114.819H78.0527V110.557H81.4619L81.4653 116.068ZM73.5109 107.68V110.554H78.0561L76.8862 111.794H70.1175V106.463H81.8665L81.2308 107.683L73.5109 107.68Z" fill="#B78D23"/>
<path d="M90.8228 116.068H87.4812V107.747H83.1986V106.459H95.4007L94.6659 107.747H90.8228V116.068Z" fill="#B78D23"/>
<path d="M107.349 114.819L106.613 116.072H96.7372V106.463H107.315L106.564 107.716H100.113V110.523H107.031L106.295 111.794H100.113V114.819H107.349Z" fill="#B78D23"/>
<path d="M115.986 116.068L113.698 112.074H112.077V116.068H108.685V106.459H115.769L114.699 107.713H112.077V110.821H115.769V106.459H119.15V112.074H117.363L119.568 116.068H115.986Z" fill="#B78D23"/>
<path d="M127.242 47.2828C125 46.5795 122.612 47.6107 121.687 49.6799C120.159 53.0992 117.404 55.8502 112.851 58.4795C113.554 57.5205 114.158 56.4931 114.654 55.413C115.833 52.8445 116.446 49.9718 116.529 46.628C116.555 45.5626 116.17 44.5278 115.455 43.7383C116.115 41.7097 116.469 39.4963 116.529 37.009C116.579 34.9928 115.183 33.238 113.133 32.741C111.083 32.244 108.979 33.1501 108.013 34.9432C106.142 38.4144 105.325 39.2889 101.764 41.6263C101.313 41.9216 100.862 42.2135 100.401 42.511C99.4399 43.132 98.4515 43.7699 97.4642 44.4529C96.9806 44.1834 96.4528 44.0025 95.9056 43.9187C95.6865 43.8859 95.4655 43.8682 95.244 43.8657C96.4037 41.8698 97.9162 40.1026 99.8253 38.5057C100.14 38.2431 100.472 37.9793 100.824 37.701C101.579 37.1025 102.359 36.4838 103.136 35.74C108.331 30.7654 110.891 24.6345 110.746 17.5175C110.72 16.8296 110.607 16.1479 110.408 15.4888C110.381 15.3897 110.35 15.277 110.338 15.2217C109.933 13.3588 108.26 11.9534 106.271 11.8092L105.717 11.7686C103.491 11.6041 101.501 12.9892 100.984 15.0617C100.887 15.4483 100.787 15.8337 100.687 16.2203C100.453 17.1219 100.212 18.0505 100.011 19.022C99.1897 22.9203 97.3774 25.5259 94.3097 27.2232C92.7996 28.0595 91.3266 28.9396 89.8998 29.7917L89.8626 29.8142L88.8257 30.4318C88.1694 28.7847 87.109 27.3294 85.7423 26.1999C84.3899 25.0639 82.8639 24.9343 82.1268 24.8723L82.0006 24.861C81.1089 24.7063 80.1915 24.8127 79.3589 25.1676C80.7113 23.8681 80.9052 22.4177 80.8883 21.6198C80.8544 20.0048 79.9799 18.5498 78.4257 17.522C75.7807 15.7717 71.7426 15.8517 69.2328 17.7034C67.8184 18.747 67.0272 20.2504 67.0622 21.8294C67.0808 22.4522 67.2222 23.0651 67.4782 23.6331C67.7343 24.2011 68.1 24.713 68.5543 25.1394C67.7388 24.8063 66.8459 24.7099 65.978 24.861L65.8495 24.8723C65.1147 24.9343 63.5854 25.0639 62.2363 26.1999C60.8696 27.3294 59.8092 28.7847 59.1528 30.4318L58.1205 29.8165L58.0822 29.7928C56.6565 28.9419 55.1835 28.0617 53.6734 27.2255C50.6056 25.5282 48.7934 22.9226 47.9718 19.0243C47.7678 18.0528 47.521 17.1219 47.2956 16.2225C47.1965 15.836 47.0962 15.4505 46.9992 15.064C46.4831 12.9914 44.4916 11.6074 42.2658 11.7709L41.7136 11.8114C39.7233 11.9579 38.0508 13.3611 37.6451 15.224C37.6327 15.2792 37.6023 15.3919 37.5741 15.4945C37.3763 16.1518 37.2627 16.8315 37.236 17.5175C37.0906 24.6345 39.6512 30.7654 44.8455 35.74C45.6232 36.4838 46.4031 37.1025 47.1581 37.701C47.5109 37.9793 47.8434 38.2431 48.1567 38.5057C50.0568 40.0981 51.5737 41.8698 52.7334 43.8679C51.8708 43.8406 51.0176 44.0545 50.2698 44.4855C49.6173 44.0438 48.9715 43.62 48.3404 43.2064C47.7442 42.8153 47.1277 42.4107 46.5372 42.014C43.5337 39.9854 41.54 38.2002 40.8875 35.5901C40.7373 35.0125 40.4697 34.4721 40.1012 34.0027C39.7328 33.5332 39.2715 33.1448 38.7462 32.8616C37.6593 32.2724 36.3846 32.1332 35.1961 32.4739L34.7273 32.6092C32.586 33.2268 31.2336 35.2802 31.5796 37.3854C31.6618 37.8881 31.7362 38.3941 31.8151 38.9283V38.9407C31.9977 40.1804 32.187 41.4663 32.4913 42.7883C32.5499 43.0452 32.6153 43.3056 32.6885 43.5659C32.2428 44.0308 31.9108 44.5927 31.7185 45.2075C31.5263 45.8222 31.4791 46.4732 31.5807 47.1092C31.6641 47.6175 31.7396 48.1235 31.8185 48.6645C32.0011 49.9042 32.1904 51.1901 32.4947 52.5121C32.9833 54.6551 33.8819 56.6834 35.1409 58.4852C34.6202 58.1764 34.0962 57.8642 33.5777 57.5532C30.368 55.626 28.1118 53.2379 26.6805 50.2524C26.5114 49.9085 26.3185 49.5767 26.1034 49.2595L26.0865 49.2336C26.0651 49.2009 26.0437 49.1694 26.0234 49.1356C24.8964 47.2997 22.5601 46.5356 20.4819 47.3166C18.4038 48.0976 17.2508 50.1747 17.7388 52.254C19.3707 59.2087 23.3299 64.3603 29.507 67.5632C35.5432 70.694 40.1493 74.8301 43.5945 80.2071C45.045 82.4735 46.2994 84.2834 47.5391 85.9007C50.5617 89.8351 53.6824 93.5553 58.4947 95.8499C59.1292 99.8102 61.2446 101.986 62.9508 103.127C63.6349 103.581 64.4263 103.847 65.2456 103.898C66.065 103.95 66.8835 103.785 67.6189 103.42C69.1156 102.677 70.0453 101.216 70.0453 99.6073C70.0453 99.1971 70.0453 98.7835 70.0375 98.3676C72.7051 98.4217 75.2397 98.4285 77.727 98.3868C77.7011 98.7598 77.6752 99.1419 77.6526 99.5363C77.5591 101.167 78.4652 102.733 79.9618 103.527C80.6375 103.883 81.39 104.07 82.1539 104.069C83.0727 104.072 83.9716 103.802 84.737 103.294C87.8993 101.186 88.9542 98.1738 89.4704 95.6763C89.9449 95.3529 90.4655 95.0283 91.0133 94.6879C92.511 93.7559 94.2072 92.6999 95.6588 91.2055C98.6059 88.1705 101.051 84.8943 103.055 82.0768C103.528 81.4141 103.986 80.7458 104.429 80.1011C106.12 77.6375 107.715 75.3114 109.797 73.6851C112.356 71.6847 115.349 69.4025 118.463 67.6229C124.622 64.1033 128.577 58.9642 130.219 52.3486C130.765 50.1656 129.484 47.9871 127.242 47.2828Z" fill="#231815" stroke="white" stroke-width="1.3524" stroke-miterlimit="10"/>
<path d="M81.2748 30.4749C82.3849 32.4055 82.2226 34.3901 81.8518 36.4481C81.6343 37.6607 81.4337 38.9568 81.6501 40.1458C82.3263 43.8277 83.5243 47.478 81.188 51.3211C82.2192 51.1318 82.8954 51.0653 83.5333 50.8805C86.6156 49.989 88.5823 47.9773 89.6766 45.153C91.1811 41.2716 93.5907 37.9954 96.8455 35.2737C97.8722 34.4149 98.9732 33.6272 99.9346 32.7064C104.289 28.5365 106.351 23.4706 106.231 17.6045C106.221 17.1019 106.027 16.6015 105.918 16.1011L105.364 16.0605C105.048 17.3307 104.688 18.5952 104.422 19.8743C103.423 24.6156 101.066 28.4553 96.5648 30.9471C94.4979 32.0899 92.4885 33.3296 90.4554 34.5276C88.8404 35.4777 87.586 36.7298 86.7971 38.4079C86.4511 39.1438 85.9485 39.8133 85.5168 40.5132L84.9533 40.4174C84.8801 39.6566 84.7279 38.8937 84.7516 38.1352C84.7854 36.7895 84.9984 35.4461 84.995 34.1016C84.995 32.2466 84.2061 30.6451 82.7557 29.4212C82.4074 29.1282 81.7278 29.1958 81.1993 29.091C81.2173 29.5575 81.0685 30.1109 81.2748 30.4749Z" fill="#B78D23"/>
<path d="M51.1263 35.2747C54.3811 37.9964 56.7906 41.2726 58.2952 45.154C59.3895 47.9782 61.3561 49.9899 64.4385 50.8814C65.0764 51.0662 65.7526 51.1327 66.7838 51.3221C64.4475 47.479 65.6489 43.8286 66.3206 40.1467C66.5381 38.9577 66.3375 37.6673 66.12 36.449C65.7492 34.39 65.5869 32.4053 66.697 30.4759C66.9066 30.1118 66.7579 29.5585 66.7748 29.0919C66.2462 29.1922 65.5666 29.1291 65.2172 29.4221C63.7657 30.646 62.9846 32.2475 62.979 34.1026C62.979 35.4471 63.1886 36.7905 63.2224 38.1361C63.2416 38.8946 63.0928 39.6576 63.0207 40.4183L62.4572 40.5141C62.0256 39.8142 61.5229 39.1448 61.1758 38.4089C60.3869 36.7307 59.1359 35.4786 57.5176 34.5252C55.4889 33.3272 53.475 32.0875 51.4081 30.9447C46.9068 28.4529 44.5502 24.6132 43.5506 19.8719C43.2812 18.5927 42.9251 17.3282 42.6084 16.0581L42.0551 16.093C41.9424 16.5934 41.7508 17.0938 41.7406 17.5965C41.6212 23.467 43.6836 28.5284 48.0383 32.6983C48.9985 33.6281 50.0996 34.4159 51.1263 35.2747Z" fill="#B78D23"/>
<path d="M45.2027 51.9147C48.3944 53.852 52.224 55.2788 52.8551 59.6234C53.7984 55.5966 53.1819 52.0544 49.6769 49.4195C47.8332 48.0344 45.8451 46.8161 43.9292 45.5201C40.5538 43.2379 37.5278 40.6841 36.5034 36.5908L36.0368 36.7249C36.3186 38.4447 36.5113 40.1815 36.8978 41.8787C37.9527 46.4938 41.1827 49.4736 45.2027 51.9147Z" fill="#B78D23"/>
<path d="M98.4435 49.1414C95.262 51.5949 94.0324 56.4309 95.8052 59.7274C95.9292 55.9869 98.5461 54.2794 101.271 52.6273C102.779 51.7133 104.253 50.7429 105.698 49.7387C110.258 46.5719 111.89 42.0751 112.018 36.9089C109.807 41.0124 108.505 42.4189 104.316 45.1687C102.34 46.4648 100.308 47.7056 98.4435 49.1414Z" fill="#B78D23"/>
<path d="M45.2027 61.6385C48.3944 63.5758 52.224 65.0026 52.8551 69.3461C53.7984 65.3204 53.1819 61.7771 49.6769 59.1433C47.8332 57.7571 45.8451 56.5399 43.9292 55.2439C40.5538 52.9605 37.5278 50.4079 36.5034 46.3135L36.0368 46.4487C36.3186 48.1674 36.5113 49.9052 36.8978 51.6025C37.9527 56.2142 41.1827 59.1974 45.2027 61.6385Z" fill="#B78D23"/>
<path d="M98.4435 58.7612C95.262 61.2147 94.0324 66.0496 95.8052 69.346C95.9292 65.6066 98.5461 63.8981 101.271 62.2459C102.779 61.3308 104.253 60.3616 105.698 59.3574C110.258 56.1894 111.89 51.6938 112.018 46.5276C109.807 50.631 108.505 52.0375 104.316 54.7874C102.34 56.0846 100.308 57.3254 98.4435 58.7612Z" fill="#B78D23"/>
<path d="M113.759 62.9483C112.353 63.6988 111.012 64.5621 109.639 65.3713C104.592 68.3432 100.666 72.3103 97.6163 77.1767C96.1658 79.4927 94.313 81.5866 92.5448 83.7054C92.0218 84.332 91.1619 84.7017 90.1972 85.3677C90.2547 82.5502 90.9129 80.4089 92.9448 78.8176C93.7337 78.2 94.5891 77.6489 95.3195 76.9738C97.5633 74.899 98.5551 72.3892 97.9758 69.3248C97.6501 73.2322 94.7841 74.9227 91.5079 76.2987C89.0871 77.313 87.8936 79.3326 87.2422 81.6205C86.3508 84.7468 84.1576 86.6052 81.1034 87.6443C76.4827 89.2153 71.8259 89.239 67.1714 87.7457C63.9031 86.6987 61.5713 84.8042 60.6596 81.4942C59.936 78.8672 58.3019 76.8882 55.588 75.8941C52.4584 74.748 50.5007 72.7306 50.0342 69.504C50.0342 69.4657 49.8899 69.4466 49.687 69.3722C49.687 69.9357 49.6656 70.4406 49.687 70.95C49.8527 74.2544 51.6931 76.6053 54.4295 78.4254C56.8469 80.0325 57.6775 82.3034 57.6978 85.4297C56.635 84.6408 55.7368 84.2069 55.1789 83.5206C53.3757 81.2993 51.5522 79.0689 49.9947 76.6898C47.3868 72.7216 44.2864 69.2245 40.1898 66.6212C37.237 64.7458 34.1896 63.0046 31.1861 61.2003C27.4039 58.9271 24.4534 55.9473 22.5826 52.0445C22.4482 51.7953 22.3007 51.5534 22.1408 51.3198C23.4256 56.7971 26.4482 61.0876 31.664 63.7924C38.2389 67.2027 43.5359 71.8685 47.4421 77.9735C48.6186 79.8116 49.8437 81.6295 51.1769 83.3639C53.9528 86.9703 56.839 90.5193 61.32 92.3698C62.3343 92.7913 62.7682 93.2985 62.8527 94.3736C63.0218 96.5149 63.7769 98.4308 65.5384 99.6119C65.5384 98.1964 65.491 96.7313 65.5553 95.2707C65.5958 94.3364 65.9903 93.9566 67.2018 93.9961C71.6479 94.1415 76.1052 94.1685 80.5501 94.0231C81.8765 93.9803 82.3837 94.3263 82.3837 95.4229C82.3837 96.8406 82.2417 98.2595 82.1583 99.7754C84.2511 98.3813 84.7921 96.3042 85.1944 94.1031C85.2993 93.5396 85.8211 92.9209 86.3305 92.5513C88.323 91.1031 90.6875 90.0076 92.3566 88.2901C94.934 85.6348 97.1925 82.6663 99.3316 79.6662C101.661 76.3979 103.7 72.9042 106.945 70.3651C109.884 68.0682 112.9 65.7973 116.15 63.9411C121.298 60.9997 124.474 56.8568 125.842 51.3638C123.416 56.7779 118.937 60.1837 113.759 62.9483Z" fill="#B78D23"/>
<path d="M83.5423 60.9476C85.3071 58.4615 87.6491 56.789 90.5714 55.7567C93.6357 54.6736 95.4581 51.8369 95.1853 48.1606C93.7597 51.4695 90.9286 52.4793 88.101 53.5421C86.8141 54.033 85.5702 54.6297 84.3819 55.3261C82.6463 56.3337 81.2713 57.7368 80.8701 59.6741C80.709 60.4518 81.1913 61.3511 81.3807 62.1952C82.1143 61.7918 83.1129 61.554 83.5423 60.9476Z" fill="#B78D23"/>
<path d="M63.4106 55.3283C62.2223 54.632 60.9783 54.0353 59.6915 53.5443C56.865 52.4815 54.0328 51.4717 52.6083 48.1628C52.3356 51.8391 54.1579 54.6758 57.2222 55.7589C60.1446 56.7912 62.4854 58.4637 64.2514 60.9498C64.6808 61.5539 65.6793 61.7917 66.4152 62.1974C66.6046 61.3533 67.0914 60.4539 66.9257 59.6763C66.52 57.739 65.1462 56.3359 63.4106 55.3283Z" fill="#B78D23"/>
<path d="M73.1761 35.5899C73.3085 34.0808 73.3085 32.5629 73.1761 31.0537L73.1287 30.5556C73.1603 30.1792 73.2189 29.8016 73.2189 29.4286C73.2189 18.8798 73.2189 35.8018 73.2189 25.2587C73.2189 23.9412 73.193 22.6666 71.8935 21.7875C71.3762 21.437 71.5182 21.0099 71.9882 20.6605C72.9405 19.9584 74.8328 19.9358 75.8527 20.6109C76.423 20.9885 76.627 21.3784 75.9654 21.8506C74.9804 22.5617 74.7392 23.5265 74.7403 24.6681C74.7629 41.0807 74.782 30.0236 74.7268 46.4362C74.7189 48.5493 75.5157 50.3661 76.2866 52.238C76.6934 53.2298 77.0665 54.2384 77.5455 55.1975C79.0725 58.2551 79.0106 61.5617 79.1999 64.8143C79.3419 67.1686 79.3025 69.5353 79.2698 71.8952C79.245 73.6984 78.5214 74.4501 76.6777 74.7206C74.7823 75.0154 72.8518 75.0029 70.9604 74.6834C69.4446 74.4152 68.7886 73.7255 68.7447 72.2773C68.6117 67.8617 68.632 63.445 69.227 59.0553C69.5832 56.4192 70.8634 54.0502 71.9386 51.6486C72.8467 49.6299 73.2859 47.4317 73.2234 45.219C73.1569 42.1761 73.3474 39.1332 73.1231 36.0903L73.1761 35.5899Z" fill="#B78D23"/>
<path d="M66.3983 81.3385C68.2105 80.5699 69.3353 81.3171 70.3879 82.3967C72.6611 84.7319 75.2701 84.742 77.5557 82.4396C78.6049 81.3836 79.7105 80.562 81.7143 81.3621C81.1925 78.708 79.4997 77.1257 76.6822 76.844C74.7874 76.6536 72.8771 76.677 70.9875 76.9138C68.2736 77.2643 66.5167 79.0664 66.3983 81.3385Z" fill="#B78D23"/>
<path d="M64.6932 64.1405L57.8715 58.7737C57.6794 58.6228 57.4468 58.5326 57.2032 58.5146C56.9597 58.4966 56.7163 58.5515 56.5041 58.6725C56.2919 58.7934 56.1207 58.9749 56.0121 59.1937C55.9036 59.4124 55.8627 59.6586 55.8947 59.9007C56.607 65.4749 59.7265 65.9865 64.2413 65.6282C64.4083 65.6143 64.5673 65.5507 64.6977 65.4454C64.8281 65.3402 64.9238 65.1982 64.9725 65.0378C65.0212 64.8775 65.0207 64.7062 64.9709 64.5462C64.9211 64.3862 64.8243 64.2449 64.6932 64.1405Z" fill="#F1D229"/>
<path d="M83.2808 64.1405L90.1037 58.7737C90.2957 58.6228 90.5283 58.5326 90.7719 58.5146C91.0155 58.4966 91.2588 58.5515 91.471 58.6725C91.6832 58.7934 91.8545 58.9749 91.963 59.1937C92.0716 59.4124 92.1124 59.6586 92.0804 59.9007C91.3682 65.4749 88.2486 65.9865 83.7338 65.6282C83.5667 65.6145 83.4076 65.551 83.277 65.4458C83.1465 65.3407 83.0506 65.1987 83.0017 65.0383C82.9529 64.8779 82.9534 64.7066 83.0031 64.5465C83.0529 64.3864 83.1496 64.2449 83.2808 64.1405Z" fill="#F1D229"/>
</svg>
