<svg width="96" height="93" viewBox="0 0 96 93" fill="none" xmlns="http://www.w3.org/2000/svg">
<path d="M20.8337 86.4633H18.3478V81.3814L16.0414 86.4633H13.9163L11.6374 81.449V86.4633H9.08057V78.566H12.5058L15.0059 83.9773L17.5194 78.566H20.8342L20.8337 86.4633Z" fill="#B78D23"/>
<path d="M24.7418 79.6235V85.4057H28.8162V78.566H31.6197V86.4633H21.9384V78.566H28.8162L27.8495 79.6235H24.7418Z" fill="#B78D23"/>
<path d="M39.3397 86.4633L35.5141 80.9695V86.4633H32.7223V78.566H35.8433L39.6552 84.1559V78.566H42.4174V86.4633H39.3397Z" fill="#B78D23"/>
<path d="M52.9293 86.4633H43.5242V85.4331H50.1125V81.9309H52.9297L52.9293 86.4633ZM46.3556 79.5684V81.9305H50.1125L49.1457 82.9466H43.5517V78.566H53.2606L52.7376 79.5684H46.3556Z" fill="#B78D23"/>
<path d="M60.663 86.4633H57.9008V79.6235H54.3656V78.566H64.4466L63.8391 79.6235H60.663V86.4633Z" fill="#B78D23"/>
<path d="M74.3222 85.4331L73.7147 86.4633H65.5521V78.566H74.2943L73.6726 79.5958H68.3419V81.9036H74.0593L73.4517 82.9471H68.3419V85.4335L74.3222 85.4331Z" fill="#B78D23"/>
<path d="M81.4617 86.4633L79.57 83.1808H78.2303V86.4633H75.4264V78.566H81.2809L80.3971 79.5958H78.2303V82.1506H81.2809V78.566H84.0727V83.1808H82.5951L84.4182 86.4633H81.4617Z" fill="#B78D23"/>
<path d="M52.7747 16.1095C53.6914 17.6955 53.5581 19.3274 53.2518 21.0198C53.0714 22.0144 52.906 23.0819 53.0851 24.0586C53.6406 27.0838 54.634 30.0853 52.7026 33.2443C53.5552 33.0889 54.1139 33.0346 54.6415 32.8825C57.1891 32.1499 58.8146 30.496 59.7189 28.1745C60.9623 24.9836 62.9536 22.29 65.6434 20.0543C66.4922 19.3498 67.4022 18.7008 68.1968 17.9441C71.7962 14.5153 73.5001 10.3526 73.4013 5.52692C73.393 5.11251 73.2321 4.70308 73.1421 4.29117L72.6838 4.2576C72.4221 5.30273 72.1279 6.34122 71.905 7.39339C71.0791 11.2888 69.1315 14.4465 65.4108 16.4941C63.7024 17.434 62.0423 18.4522 60.3614 19.4364C59.0242 20.22 57.9896 21.2494 57.3375 22.6273C57.0512 23.2327 56.6353 23.7831 56.2787 24.3583L55.8124 24.2791C55.752 23.6538 55.6295 23.0272 55.6457 22.4035C55.674 21.2971 55.8503 20.1927 55.847 19.0883C55.8428 17.5637 55.1973 16.2471 53.9969 15.2418C53.7085 15.0002 53.1464 15.0528 52.7101 14.9704C52.7243 15.3541 52.6009 15.8099 52.7747 16.1095Z" fill="#B78D23"/>
<path d="M27.8545 20.0542C30.5443 22.292 32.5356 24.9856 33.779 28.1745C34.6832 30.4951 36.3088 32.1499 38.8564 32.8825C39.3839 33.0346 39.9427 33.0897 40.7953 33.2443C38.8639 30.0853 39.8573 27.085 40.4127 24.0586C40.5919 23.0819 40.4265 22.0164 40.2461 21.0198C39.9398 19.3274 39.8056 17.6954 40.7232 16.1095C40.8969 15.8091 40.7736 15.3549 40.7873 14.9716C40.3511 15.0545 39.7873 15.0014 39.5006 15.243C38.3001 16.2484 37.6547 17.5637 37.6505 19.0895C37.6472 20.1947 37.8234 21.2991 37.8518 22.4047C37.8676 23.0284 37.7451 23.655 37.6851 24.2803L37.2188 24.3595C36.8621 23.7843 36.4463 23.234 36.16 22.6285C35.5079 21.249 34.4732 20.2196 33.1361 19.4376C31.4551 18.453 29.795 17.4348 28.0866 16.4953C24.366 14.4478 22.4196 11.2913 21.5925 7.39461C21.3696 6.34244 21.0754 5.30395 20.8137 4.25882L20.3553 4.29239C20.2653 4.7043 20.1053 5.11498 20.0962 5.52814C19.9974 10.3539 21.7012 14.5166 25.3006 17.9453C26.0957 18.7008 27.0057 19.3481 27.8545 20.0542Z" fill="#B78D23"/>
<path d="M22.9584 33.7321C25.5961 35.3246 28.7617 36.497 29.2829 40.0679C30.0626 36.7584 29.5534 33.8464 26.6578 31.6808C25.134 30.542 23.4955 29.5412 21.9109 28.4758C19.1211 26.5997 16.6189 24.5012 15.7734 21.1358L15.3876 21.2465C15.6205 22.6596 15.7801 24.0876 16.0997 25.4829C16.9668 29.278 19.6361 31.7259 22.9584 33.7321Z" fill="#B78D23"/>
<path d="M66.9622 31.4524C64.332 33.4685 63.3157 37.4435 64.7808 40.1549C64.8837 37.0809 67.0464 35.6769 69.2986 34.318C70.5449 33.5659 71.7637 32.7686 72.9579 31.9435C76.7265 29.3398 78.0753 25.6446 78.1812 21.3978C76.354 24.7706 75.2781 25.9264 71.8162 28.1869C70.1815 29.252 68.5023 30.2726 66.9622 31.4524Z" fill="#B78D23"/>
<path d="M22.9584 41.7242C25.5961 43.3168 28.7617 44.4896 29.2829 48.0601C30.0626 44.7506 29.5534 41.8386 26.6578 39.6729C25.134 38.5342 23.4955 37.5338 21.9109 36.4679C19.1211 34.5919 16.6189 32.4934 15.7734 29.128L15.3876 29.2387C15.6205 30.6518 15.7801 32.0798 16.0997 33.4751C16.9668 37.2686 19.6361 39.7181 22.9584 41.7242Z" fill="#B78D23"/>
<path d="M66.9622 39.3596C64.332 41.3757 63.3157 45.3507 64.7808 48.0621C64.8837 44.9881 67.0464 43.5841 69.2986 42.2252C70.5449 41.4731 71.7637 40.6758 72.9579 39.8507C76.7265 37.247 78.0753 33.5518 78.1812 29.305C76.354 32.6778 75.2781 33.8336 71.8162 36.0941C70.1815 37.1592 68.5023 38.179 66.9622 39.3596Z" fill="#B78D23"/>
<path d="M79.62 42.8009C78.4574 43.4183 77.3494 44.1269 76.2148 44.79C72.0437 47.235 68.7977 50.4943 66.2817 54.4908C65.0833 56.3937 63.5515 58.1147 62.0894 59.8569C61.6573 60.3712 60.9468 60.6753 60.1493 61.2244C60.1963 58.9038 60.7405 57.1492 62.4202 55.8401C63.0723 55.332 63.7791 54.8791 64.3824 54.3246C66.2371 52.6189 67.0567 50.5535 66.578 48.0373C66.3059 51.2564 63.9374 52.6425 61.2293 53.773C59.2292 54.608 58.2429 56.2673 57.7037 58.1475C56.9666 60.7168 55.1544 62.2443 52.6301 63.0984C48.8132 64.3896 44.963 64.4095 41.1153 63.1812C38.4184 62.3209 36.4875 60.7636 35.7333 58.0426C35.1349 55.8832 33.7848 54.2571 31.5393 53.4394C28.9525 52.4979 27.334 50.839 26.9486 48.1869C26.9444 48.1562 26.8294 48.14 26.6619 48.0791C26.6619 48.5399 26.6436 48.9572 26.6648 49.3725C26.8015 52.0893 28.3224 54.0213 30.5846 55.5173C32.5823 56.8384 33.269 58.7053 33.2844 61.2746C32.406 60.6273 31.6643 60.2696 31.2009 59.706C29.7075 57.8802 28.2033 56.046 26.9119 54.0913C24.7572 50.8295 22.195 47.9552 18.8065 45.8148C16.3659 44.2732 13.8479 42.8419 11.3648 41.3591C8.23962 39.4943 5.80698 37.044 4.26147 33.8381C4.16105 33.6309 4.01813 33.4407 3.8952 33.2422C4.95776 37.7443 7.45582 41.2713 11.7661 43.4946C17.2005 46.2976 21.5783 50.1329 24.8056 55.1509C25.7773 56.6614 26.7903 58.1553 27.8924 59.5821C30.1842 62.5501 32.5718 65.4625 36.2766 66.9838C37.12 67.3302 37.4738 67.7476 37.5442 68.6311C37.6838 70.3873 38.308 71.9695 39.7635 72.9363C39.7635 71.7731 39.7248 70.5688 39.7773 69.3683C39.811 68.6008 40.1377 68.2883 41.1382 68.3211C44.813 68.44 48.4969 68.462 52.1709 68.3431C53.2668 68.3078 53.6864 68.5917 53.6868 69.493C53.6868 70.6592 53.5685 71.8253 53.4968 73.071C55.2265 71.9247 55.6744 70.2182 56.0069 68.4094C56.0928 67.9411 56.5249 67.4376 56.9453 67.1334C58.5925 65.9428 60.5468 65.0427 61.926 63.6304C64.0566 61.4486 65.9229 59.0086 67.6905 56.5441C69.6165 53.8567 71.3016 50.9824 73.9826 48.8988C76.4114 47.0112 78.9045 45.1447 81.5909 43.6185C85.8453 41.2013 88.4709 37.7961 89.598 33.2803C87.6013 37.7281 83.899 40.5283 79.62 42.8009Z" fill="#B78D23"/>
<path d="M54.6456 41.1586C56.104 39.1151 58.0396 37.7402 60.4551 36.8902C62.9882 36.0005 64.4941 33.6682 64.2687 30.6464C63.0907 33.367 60.7505 34.197 58.4137 35.0702C57.3492 35.4735 56.32 35.9639 55.3369 36.5363C53.9026 37.3651 52.7663 38.5184 52.4351 40.1105C52.3017 40.75 52.7001 41.4889 52.8568 42.1826C53.4655 41.8502 54.291 41.6554 54.6456 41.1586Z" fill="#B78D23"/>
<path d="M38.0072 36.5376C37.0239 35.9651 35.9947 35.4747 34.9299 35.0714C32.5936 34.1983 30.253 33.3682 29.0754 30.6476C28.8496 33.6695 30.3559 36.0017 32.889 36.8915C35.3058 37.7402 37.2392 39.1152 38.6985 41.1598C39.0531 41.6571 39.8781 41.8515 40.4873 42.1851C40.6436 41.4913 41.042 40.7525 40.909 40.113C40.5774 38.5192 39.4415 37.366 38.0072 36.5376Z" fill="#B78D23"/>
<path d="M46.0789 20.3124C46.1785 19.0692 46.1935 17.826 46.0735 16.5828C46.0606 16.4464 46.0472 16.3101 46.0343 16.1738C46.0602 15.8638 46.1089 15.5522 46.1089 15.2434C46.1127 6.57326 46.1089 20.4819 46.1139 11.8117C46.1139 10.7281 46.0927 9.6817 45.0188 8.95815C44.5913 8.67056 44.708 8.31873 45.0968 8.03321C45.8835 7.45636 47.4477 7.43812 48.2903 7.99177C48.762 8.30216 48.9303 8.62249 48.384 9.0141C47.5698 9.598 47.3702 10.3912 47.3715 11.3298C47.3902 24.8203 47.4056 15.732 47.3598 29.2221C47.3536 30.9589 48.0153 32.4544 48.6491 33.9906C48.9849 34.8062 49.2933 35.635 49.6908 36.4236C50.9534 38.937 50.8967 41.655 51.0588 44.3284C51.1759 46.2632 51.1421 48.2084 51.1163 50.1482C51.0959 51.6277 50.4971 52.2484 48.9699 52.4689C47.3961 52.6985 45.8122 52.7134 44.2442 52.4382C42.9921 52.2182 42.4495 51.6509 42.4137 50.4607C42.3037 46.8309 42.3216 43.2003 42.8121 39.5921C43.1067 37.4252 44.1646 35.4779 45.0526 33.5041C45.8243 31.7893 46.1543 30.053 46.1147 28.2196C46.0602 25.7191 46.2173 23.2161 46.0314 20.7189C46.0472 20.5847 46.0631 20.4483 46.0789 20.3124Z" fill="#B78D23"/>
<path d="M40.4724 57.9175C41.9704 57.2851 42.9004 57.8997 43.7696 58.7877C45.6489 60.7064 47.8049 60.7151 49.6945 58.8225C50.5617 57.9523 51.4751 57.2797 53.1318 57.937C52.7005 55.7551 51.3009 54.456 48.972 54.2231C47.4053 54.0663 45.8258 54.0856 44.2634 54.2807C42.0262 54.5683 40.5744 56.0485 40.4724 57.9175Z" fill="#B78D23"/>
<path d="M39.0676 43.7822L33.4294 39.3704C32.7123 38.8093 31.6793 39.3994 31.7952 40.2995C32.3839 44.8812 34.9649 45.3006 38.6939 45.0067C39.3202 44.9562 39.5618 44.1676 39.0676 43.7822Z" fill="#F1D229"/>
<path d="M54.4302 43.7822L60.0684 39.3704C60.7856 38.8093 61.8185 39.3994 61.7027 40.2995C61.1139 44.8812 58.5329 45.3006 54.804 45.0067C54.1773 44.9562 53.936 44.1676 54.4302 43.7822Z" fill="#F1D229"/>
</svg>
